<svg width="45" height="55" viewBox="0 0 45 55" fill="none" xmlns="http://www.w3.org/2000/svg">
<path fill-rule="evenodd" clip-rule="evenodd" d="M5 21.25C5 12.7343 12.5248 5 22.5 5C32.4753 5 40 12.7343 40 21.25C40 26.6122 36.7192 32.6015 32.4015 38.1528C28.9893 42.54 25.1933 46.3323 22.5 48.986C19.8067 46.3323 16.0107 42.54 12.5984 38.1528C8.28072 32.6015 5 26.6122 5 21.25ZM22.5 0C9.97517 0 0 9.76573 0 21.25C0 28.3878 4.21927 35.5235 8.65162 41.2222C12.4872 46.1537 16.7985 50.3935 19.4933 53.0433C19.9578 53.5003 20.3745 53.91 20.7323 54.2677C21.201 54.7365 21.837 55 22.5 55C23.163 55 23.799 54.7365 24.2677 54.2677C24.6255 53.91 25.0422 53.5002 25.5067 53.0435C28.2013 50.3935 32.5127 46.1537 36.3485 41.2222C40.7808 35.5235 45 28.3878 45 21.25C45 9.76573 35.0247 0 22.5 0ZM22.5 28.75C25.9517 28.75 28.75 25.9517 28.75 22.5C28.75 19.0482 25.9517 16.25 22.5 16.25C19.0483 16.25 16.25 19.0482 16.25 22.5C16.25 25.9517 19.0483 28.75 22.5 28.75Z" fill="#FF4747"/>
</svg>
