<svg width="26" height="26" viewBox="0 0 26 26" fill="none" xmlns="http://www.w3.org/2000/svg">
<path d="M1.5 4.62622C1.5 15.3267 10.1745 24.0012 20.875 24.0012C21.3578 24.0012 21.8364 23.9836 22.3104 23.9488C22.8542 23.909 23.1262 23.8891 23.3737 23.7466C23.5787 23.6286 23.7732 23.4193 23.8759 23.2062C24 22.949 24 22.6488 24 22.0487V18.5271C24 18.0223 24 17.77 23.9169 17.5537C23.8436 17.3626 23.7244 17.1925 23.5699 17.0582C23.395 16.9062 23.1578 16.82 22.6835 16.6475L18.6749 15.1898C18.1231 14.9892 17.8472 14.8888 17.5854 14.9058C17.3545 14.9208 17.1324 14.9997 16.9437 15.1335C16.7297 15.2851 16.5786 15.5368 16.2765 16.0405L15.25 17.7512C11.9376 16.2511 9.25238 13.5623 7.75 10.2512L9.46075 9.22475C9.96437 8.92263 10.2161 8.77157 10.3678 8.55755C10.5015 8.36882 10.5804 8.14668 10.5954 7.91585C10.6124 7.65406 10.512 7.37813 10.3114 6.82628L8.85375 2.81773C8.68125 2.34342 8.595 2.10626 8.443 1.93135C8.30875 1.77683 8.13862 1.65766 7.9475 1.58428C7.73125 1.50122 7.47887 1.50122 6.97412 1.50122H3.4525C2.85238 1.50122 2.55225 1.50122 2.295 1.62528C2.08187 1.72805 1.87262 1.92248 1.75462 2.12751C1.61212 2.37506 1.59225 2.647 1.55238 3.19088C1.51763 3.6648 1.5 4.14345 1.5 4.62622Z" stroke="#FF4747" stroke-width="3" stroke-linecap="round" stroke-linejoin="round"/>
</svg>
